<svg xmlns="http://www.w3.org/2000/svg" xmlns:svg="http://www.w3.org/2000/svg" preserveAspectRatio="xMidYMin meet" viewBox="-13 27 216 318"><g style="stroke-width:26px;stroke:#fff;stroke-linejoin:round"><rect width="190" height="60" x="0" y="82" shape-rendering="geometricPrecision" style="fill:#e6008d"/><rect width="14" height="14" x="28" y="40" shape-rendering="geometricPrecision" style="fill:#e6008d"/><rect width="14" height="14" x="0" y="54" shape-rendering="geometricPrecision" style="fill:#e6008d"/><rect width="14" height="14" x="28" y="54" shape-rendering="geometricPrecision" style="fill:#e6008d"/><rect width="14" height="14" x="42" y="54" shape-rendering="geometricPrecision" style="fill:#e6008d"/><rect width="14" height="14" x="70" y="54" shape-rendering="geometricPrecision" style="fill:#e6008d"/><rect width="14" height="14" x="0" y="68" shape-rendering="geometricPrecision" style="fill:#e6008d"/><rect width="14" height="14" x="14" y="68" shape-rendering="geometricPrecision" style="fill:#e6008d"/><rect width="14" height="14" x="28" y="68" shape-rendering="geometricPrecision" style="fill:#e6008d"/><rect width="14" height="14" x="42" y="68" shape-rendering="geometricPrecision" style="fill:#e6008d"/><rect width="14" height="14" x="70" y="68" shape-rendering="geometricPrecision" style="fill:#e6008d"/><rect width="14" height="14" x="98" y="68" shape-rendering="geometricPrecision" style="fill:#e6008d"/><rect width="190" height="60" x="0" y="156" shape-rendering="geometricPrecision" style="fill:#8d2089"/><rect width="190" height="60" x="0" y="230" shape-rendering="geometricPrecision" style="fill:#5f2688"/><rect width="14" height="14" x="148" y="318" shape-rendering="geometricPrecision" style="fill:#5f2688"/><rect width="14" height="14" x="176" y="304" shape-rendering="geometricPrecision" style="fill:#5f2688"/><rect width="14" height="14" x="148" y="304" shape-rendering="geometricPrecision" style="fill:#5f2688"/><rect width="14" height="14" x="134" y="304" shape-rendering="geometricPrecision" style="fill:#5f2688"/><rect width="14" height="14" x="106" y="304" shape-rendering="geometricPrecision" style="fill:#5f2688"/><rect width="14" height="14" x="176" y="290" shape-rendering="geometricPrecision" style="fill:#5f2688"/><rect width="14" height="14" x="162" y="290" shape-rendering="geometricPrecision" style="fill:#5f2688"/><rect width="14" height="14" x="148" y="290" shape-rendering="geometricPrecision" style="fill:#5f2688"/><rect width="14" height="14" x="134" y="290" shape-rendering="geometricPrecision" style="fill:#5f2688"/><rect width="14" height="14" x="106" y="290" shape-rendering="geometricPrecision" style="fill:#5f2688"/><rect width="14" height="14" x="78" y="290" shape-rendering="geometricPrecision" style="fill:#5f2688"/></g><g id="normal-group"><rect width="190" height="60" x="0" y="82" shape-rendering="crispEdges" style="fill:#e6008d"/><rect width="14" height="14" x="28" y="40" shape-rendering="crispEdges" style="fill:#e6008d"/><rect width="14" height="14" x="0" y="54" shape-rendering="crispEdges" style="fill:#e6008d"/><rect width="14" height="14" x="28" y="54" shape-rendering="crispEdges" style="fill:#e6008d"/><rect width="14" height="14" x="42" y="54" shape-rendering="crispEdges" style="fill:#e6008d"/><rect width="14" height="14" x="70" y="54" shape-rendering="crispEdges" style="fill:#e6008d"/><rect width="14" height="14" x="0" y="68" shape-rendering="crispEdges" style="fill:#e6008d"/><rect width="14" height="14" x="14" y="68" shape-rendering="crispEdges" style="fill:#e6008d"/><rect width="14" height="14" x="28" y="68" shape-rendering="crispEdges" style="fill:#e6008d"/><rect width="14" height="14" x="42" y="68" shape-rendering="crispEdges" style="fill:#e6008d"/><rect width="14" height="14" x="70" y="68" shape-rendering="crispEdges" style="fill:#e6008d"/><rect width="14" height="14" x="98" y="68" shape-rendering="crispEdges" style="fill:#e6008d"/><rect width="190" height="60" x="0" y="156" shape-rendering="crispEdges" style="fill:#8d2089"/><rect width="190" height="60" x="0" y="230" shape-rendering="crispEdges" style="fill:#5f2688"/><rect width="14" height="14" x="148" y="318" shape-rendering="crispEdges" style="fill:#5f2688"/><rect width="14" height="14" x="176" y="304" shape-rendering="crispEdges" style="fill:#5f2688"/><rect width="14" height="14" x="148" y="304" shape-rendering="crispEdges" style="fill:#5f2688"/><rect width="14" height="14" x="134" y="304" shape-rendering="crispEdges" style="fill:#5f2688"/><rect width="14" height="14" x="106" y="304" shape-rendering="crispEdges" style="fill:#5f2688"/><rect width="14" height="14" x="176" y="290" shape-rendering="crispEdges" style="fill:#5f2688"/><rect width="14" height="14" x="162" y="290" shape-rendering="crispEdges" style="fill:#5f2688"/><rect width="14" height="14" x="148" y="290" shape-rendering="crispEdges" style="fill:#5f2688"/><rect width="14" height="14" x="134" y="290" shape-rendering="crispEdges" style="fill:#5f2688"/><rect width="14" height="14" x="106" y="290" shape-rendering="crispEdges" style="fill:#5f2688"/><rect width="14" height="14" x="78" y="290" shape-rendering="crispEdges" style="fill:#5f2688"/></g></svg>