<svg xmlns="http://www.w3.org/2000/svg" xmlns:svg="http://www.w3.org/2000/svg" preserveAspectRatio="xMidYMin meet" viewBox="-21 35 640 334"><g style="stroke-width:42px;stroke:#fff;stroke-linejoin:round"><rect width="190" height="60" x="0" y="98" shape-rendering="geometricPrecision" style="fill:#e6008d"/><rect width="14" height="14" x="28" y="56" shape-rendering="geometricPrecision" style="fill:#e6008d"/><rect width="14" height="14" x="0" y="70" shape-rendering="geometricPrecision" style="fill:#e6008d"/><rect width="14" height="14" x="28" y="70" shape-rendering="geometricPrecision" style="fill:#e6008d"/><rect width="14" height="14" x="42" y="70" shape-rendering="geometricPrecision" style="fill:#e6008d"/><rect width="14" height="14" x="70" y="70" shape-rendering="geometricPrecision" style="fill:#e6008d"/><rect width="14" height="14" x="0" y="84" shape-rendering="geometricPrecision" style="fill:#e6008d"/><rect width="14" height="14" x="14" y="84" shape-rendering="geometricPrecision" style="fill:#e6008d"/><rect width="14" height="14" x="28" y="84" shape-rendering="geometricPrecision" style="fill:#e6008d"/><rect width="14" height="14" x="42" y="84" shape-rendering="geometricPrecision" style="fill:#e6008d"/><rect width="14" height="14" x="70" y="84" shape-rendering="geometricPrecision" style="fill:#e6008d"/><rect width="14" height="14" x="98" y="84" shape-rendering="geometricPrecision" style="fill:#e6008d"/><rect width="190" height="60" x="0" y="172" shape-rendering="geometricPrecision" style="fill:#8d2089"/><rect width="190" height="60" x="0" y="246" shape-rendering="geometricPrecision" style="fill:#5f2688"/><rect width="14" height="14" x="148" y="334" shape-rendering="geometricPrecision" style="fill:#5f2688"/><rect width="14" height="14" x="176" y="320" shape-rendering="geometricPrecision" style="fill:#5f2688"/><rect width="14" height="14" x="148" y="320" shape-rendering="geometricPrecision" style="fill:#5f2688"/><rect width="14" height="14" x="134" y="320" shape-rendering="geometricPrecision" style="fill:#5f2688"/><rect width="14" height="14" x="106" y="320" shape-rendering="geometricPrecision" style="fill:#5f2688"/><rect width="14" height="14" x="176" y="306" shape-rendering="geometricPrecision" style="fill:#5f2688"/><rect width="14" height="14" x="162" y="306" shape-rendering="geometricPrecision" style="fill:#5f2688"/><rect width="14" height="14" x="148" y="306" shape-rendering="geometricPrecision" style="fill:#5f2688"/><rect width="14" height="14" x="134" y="306" shape-rendering="geometricPrecision" style="fill:#5f2688"/><rect width="14" height="14" x="106" y="306" shape-rendering="geometricPrecision" style="fill:#5f2688"/><rect width="14" height="14" x="78" y="306" shape-rendering="geometricPrecision" style="fill:#5f2688"/><path d="M212.20000 225.70000L212.20000 122.66000L265.80000 122.66000Q284.04000 122.66000 293.32000 132.58000Q302.60000 142.50000 302.60000 159.30000L302.60000 159.30000Q302.60000 169.54000 297.48000 177.46000Q292.36000 185.38000 283.56000 189.70000L283.56000 189.70000Q285.32000 191.14000 286.60000 193.06000Q287.88000 194.98000 289.48000 198.66000L289.48000 198.66000L301.32000 225.70000L269.96000 225.70000L259.08000 200.90000Q257.80000 198.02000 255.96000 196.82000Q254.12000 195.62000 250.76000 195.62000L250.76000 195.62000L242.28000 195.62000L242.28000 225.70000L212.20000 225.70000ZM242.28000 172.58000L258.12000 172.58000Q264.68000 172.58000 268.28000 169.14000Q271.88000 165.70000 271.88000 159.30000L271.88000 159.30000Q271.88000 145.70000 259.08000 145.70000L259.08000 145.70000L242.28000 145.70000L242.28000 172.58000Z" shape-rendering="geometricPrecision" transform="scale(1,1.1755)" style="fill:#8d2089"/><path d="M303.40000 225.70000L332.68000 187.14000L304.52000 149.86000L337.16000 149.86000L349.00000 165.86000L361.00000 149.86000L393.48000 149.86000L365.48000 187.14000L394.76000 225.70000L361.80000 225.70000L349.00000 208.74000L336.20000 225.70000L303.40000 225.70000Z" shape-rendering="geometricPrecision" transform="scale(1,1.1755)" style="fill:#8d2089"/><path d="M398.76000 225.70000L398.76000 122.66000L444.84000 122.66000Q469.48000 122.66000 482.20000 135.06000Q494.92000 147.46000 494.92000 174.82000L494.92000 174.82000Q494.92000 200.90000 482.20000 213.30000Q469.48000 225.70000 444.84000 225.70000L444.84000 225.70000L398.76000 225.70000ZM428.84000 202.66000L441.00000 202.66000Q449.00000 202.66000 453.96000 200.34000Q458.92000 198.02000 461.56000 192.02000Q464.20000 186.02000 464.20000 174.82000L464.20000 174.82000Q464.20000 163.46000 461.80000 157.14000Q459.40000 150.82000 454.36000 148.26000Q449.32000 145.70000 441.00000 145.70000L441.00000 145.70000L428.84000 145.70000L428.84000 202.66000Z" shape-rendering="geometricPrecision" transform="scale(1,1.1755)" style="fill:#8d2089"/><path d="M506.12000 225.70000L506.12000 122.66000L562.76000 122.66000Q578.28000 122.66000 586.52000 130.02000Q594.76000 137.38000 594.76000 151.14000L594.76000 151.14000Q594.76000 158.82000 591.88000 164.42000Q589.00000 170.02000 584.04000 173.22000L584.04000 173.22000Q591.24000 176.10000 594.84000 181.06000Q598.44000 186.02000 598.44000 195.14000L598.44000 195.14000Q598.44000 209.70000 589.48000 217.70000Q580.52000 225.70000 564.04000 225.70000L564.04000 225.70000L506.12000 225.70000ZM535.08000 163.78000L554.60000 163.78000Q565.64000 163.78000 565.64000 153.86000L565.64000 153.86000Q565.64000 148.74000 562.84000 146.26000Q560.04000 143.78000 553.80000 143.78000L553.80000 143.78000L535.08000 143.78000L535.08000 163.78000ZM535.08000 204.74000L555.88000 204.74000Q561.96000 204.74000 564.84000 202.18000Q567.72000 199.62000 567.72000 193.70000L567.72000 193.70000Q567.72000 188.58000 564.76000 186.10000Q561.80000 183.62000 555.24000 183.62000L555.24000 183.62000L535.08000 183.62000L535.08000 204.74000Z" shape-rendering="geometricPrecision" transform="scale(1,1.1755)" style="fill:#8d2089"/></g><g id="normal-group"><rect width="190" height="60" x="0" y="98" shape-rendering="crispEdges" style="fill:#e6008d"/><rect width="14" height="14" x="28" y="56" shape-rendering="crispEdges" style="fill:#e6008d"/><rect width="14" height="14" x="0" y="70" shape-rendering="crispEdges" style="fill:#e6008d"/><rect width="14" height="14" x="28" y="70" shape-rendering="crispEdges" style="fill:#e6008d"/><rect width="14" height="14" x="42" y="70" shape-rendering="crispEdges" style="fill:#e6008d"/><rect width="14" height="14" x="70" y="70" shape-rendering="crispEdges" style="fill:#e6008d"/><rect width="14" height="14" x="0" y="84" shape-rendering="crispEdges" style="fill:#e6008d"/><rect width="14" height="14" x="14" y="84" shape-rendering="crispEdges" style="fill:#e6008d"/><rect width="14" height="14" x="28" y="84" shape-rendering="crispEdges" style="fill:#e6008d"/><rect width="14" height="14" x="42" y="84" shape-rendering="crispEdges" style="fill:#e6008d"/><rect width="14" height="14" x="70" y="84" shape-rendering="crispEdges" style="fill:#e6008d"/><rect width="14" height="14" x="98" y="84" shape-rendering="crispEdges" style="fill:#e6008d"/><rect width="190" height="60" x="0" y="172" shape-rendering="crispEdges" style="fill:#8d2089"/><rect width="190" height="60" x="0" y="246" shape-rendering="crispEdges" style="fill:#5f2688"/><rect width="14" height="14" x="148" y="334" shape-rendering="crispEdges" style="fill:#5f2688"/><rect width="14" height="14" x="176" y="320" shape-rendering="crispEdges" style="fill:#5f2688"/><rect width="14" height="14" x="148" y="320" shape-rendering="crispEdges" style="fill:#5f2688"/><rect width="14" height="14" x="134" y="320" shape-rendering="crispEdges" style="fill:#5f2688"/><rect width="14" height="14" x="106" y="320" shape-rendering="crispEdges" style="fill:#5f2688"/><rect width="14" height="14" x="176" y="306" shape-rendering="crispEdges" style="fill:#5f2688"/><rect width="14" height="14" x="162" y="306" shape-rendering="crispEdges" style="fill:#5f2688"/><rect width="14" height="14" x="148" y="306" shape-rendering="crispEdges" style="fill:#5f2688"/><rect width="14" height="14" x="134" y="306" shape-rendering="crispEdges" style="fill:#5f2688"/><rect width="14" height="14" x="106" y="306" shape-rendering="crispEdges" style="fill:#5f2688"/><rect width="14" height="14" x="78" y="306" shape-rendering="crispEdges" style="fill:#5f2688"/><path d="M212.20000 225.70000L212.20000 122.66000L265.80000 122.66000Q284.04000 122.66000 293.32000 132.58000Q302.60000 142.50000 302.60000 159.30000L302.60000 159.30000Q302.60000 169.54000 297.48000 177.46000Q292.36000 185.38000 283.56000 189.70000L283.56000 189.70000Q285.32000 191.14000 286.60000 193.06000Q287.88000 194.98000 289.48000 198.66000L289.48000 198.66000L301.32000 225.70000L269.96000 225.70000L259.08000 200.90000Q257.80000 198.02000 255.96000 196.82000Q254.12000 195.62000 250.76000 195.62000L250.76000 195.62000L242.28000 195.62000L242.28000 225.70000L212.20000 225.70000ZM242.28000 172.58000L258.12000 172.58000Q264.68000 172.58000 268.28000 169.14000Q271.88000 165.70000 271.88000 159.30000L271.88000 159.30000Q271.88000 145.70000 259.08000 145.70000L259.08000 145.70000L242.28000 145.70000L242.28000 172.58000Z" shape-rendering="geometricPrecision" transform="scale(1,1.1755)" style="fill:#8d2089"/><path d="M303.40000 225.70000L332.68000 187.14000L304.52000 149.86000L337.16000 149.86000L349.00000 165.86000L361.00000 149.86000L393.48000 149.86000L365.48000 187.14000L394.76000 225.70000L361.80000 225.70000L349.00000 208.74000L336.20000 225.70000L303.40000 225.70000Z" shape-rendering="geometricPrecision" transform="scale(1,1.1755)" style="fill:#8d2089"/><path d="M398.76000 225.70000L398.76000 122.66000L444.84000 122.66000Q469.48000 122.66000 482.20000 135.06000Q494.92000 147.46000 494.92000 174.82000L494.92000 174.82000Q494.92000 200.90000 482.20000 213.30000Q469.48000 225.70000 444.84000 225.70000L444.84000 225.70000L398.76000 225.70000ZM428.84000 202.66000L441.00000 202.66000Q449.00000 202.66000 453.96000 200.34000Q458.92000 198.02000 461.56000 192.02000Q464.20000 186.02000 464.20000 174.82000L464.20000 174.82000Q464.20000 163.46000 461.80000 157.14000Q459.40000 150.82000 454.36000 148.26000Q449.32000 145.70000 441.00000 145.70000L441.00000 145.70000L428.84000 145.70000L428.84000 202.66000Z" shape-rendering="geometricPrecision" transform="scale(1,1.1755)" style="fill:#8d2089"/><path d="M506.12000 225.70000L506.12000 122.66000L562.76000 122.66000Q578.28000 122.66000 586.52000 130.02000Q594.76000 137.38000 594.76000 151.14000L594.76000 151.14000Q594.76000 158.82000 591.88000 164.42000Q589.00000 170.02000 584.04000 173.22000L584.04000 173.22000Q591.24000 176.10000 594.84000 181.06000Q598.44000 186.02000 598.44000 195.14000L598.44000 195.14000Q598.44000 209.70000 589.48000 217.70000Q580.52000 225.70000 564.04000 225.70000L564.04000 225.70000L506.12000 225.70000ZM535.08000 163.78000L554.60000 163.78000Q565.64000 163.78000 565.64000 153.86000L565.64000 153.86000Q565.64000 148.74000 562.84000 146.26000Q560.04000 143.78000 553.80000 143.78000L553.80000 143.78000L535.08000 143.78000L535.08000 163.78000ZM535.08000 204.74000L555.88000 204.74000Q561.96000 204.74000 564.84000 202.18000Q567.72000 199.62000 567.72000 193.70000L567.72000 193.70000Q567.72000 188.58000 564.76000 186.10000Q561.80000 183.62000 555.24000 183.62000L555.24000 183.62000L535.08000 183.62000L535.08000 204.74000Z" shape-rendering="geometricPrecision" transform="scale(1,1.1755)" style="fill:#8d2089"/></g></svg>