<svg xmlns="http://www.w3.org/2000/svg" xmlns:xlink="http://www.w3.org/1999/xlink" width="343pt" height="260pt" viewBox="0 40 343 260"><title>Hasse diagram</title><g id="graph0" class="graph" style="font-family:Times-Roman;font-size:14"><polygon style="fill:#fff;stroke:#fff" points="-2 262 -2 -2 345 -2 345 962 -2 962"/><g id="node3" class="node"><title>?</title><ellipse style="fill:none;stroke:#000" cx="171" cy="94" rx="27" ry="18"/><text x="171" y="99" font-weight="bold" text-anchor="middle">{?}</text></g><g id="node7" class="node"><title>z</title><ellipse style="fill:none;stroke:#000" cx="293" cy="166" rx="27" ry="18"/><text x="293" y="171" text-anchor="middle">{z}</text></g><g id="node5" class="node"><title>x</title><ellipse style="fill:none;stroke:#000" cx="49" cy="166" rx="27" ry="18"/><text x="49" y="171" text-anchor="middle">{x}</text></g><g id="edge12" class="edge"><title>xz-&gt;x</title><path style="fill:none;stroke:#000" d="M142,111C120,125 89,143 70,154"/><polygon style="fill:none;stroke:#000" points="141 108 151 106 144 114 141 108"/></g><g id="edge13" class="edge"><title>xz-&gt;z</title><path style="fill:none;stroke:#000" d="M200,111C222,125 253,143 272,154"/><polygon style="fill:none;stroke:#000" points="198 114 191 106 201 108 198 114"/></g><g id="node8" class="node"><title>phi</title><ellipse style="fill:none;stroke:#000" cx="171" cy="238" rx="27" ry="18"/><text x="171" y="243" text-anchor="middle">Ø</text></g><g id="edge19" class="edge"><title>x-&gt;phi</title><path style="fill:none;stroke:#000" d="M78,183C100,197 131,215 150,226"/><polygon style="fill:none;stroke:#000" points="76 186 69 178 79 180 76 186"/></g><g id="edge23" class="edge"><title>z-&gt;phi</title><path style="fill:none;stroke:#000" d="M264,183C242,197 211,215 192,226"/><polygon style="fill:none;stroke:#000" points="263 180 273 178 266 186 263 180"/></g></g></svg>