<svg xmlns="http://www.w3.org/2000/svg" xmlns:xlink="http://www.w3.org/1999/xlink" width="343pt" height="260pt" viewBox="0 0 343 260"><title>Hasse diagram</title><g id="graph0" class="graph" style="font-family:Times-Roman;font-size:14"><polygon style="fill:#fff;stroke:#fff" points="-2 262 -2 -2 345 -2 345 262 -2 262"/><g id="node1" class="node"><title>xyz</title><ellipse style="fill:none;stroke:#000" cx="171" cy="22" rx="31" ry="18"/><text x="171" y="27" text-anchor="middle">{x,y,z}</text></g><g id="node2" class="node"><title>yz</title><ellipse style="fill:none;stroke:#000" cx="293" cy="94" rx="27" ry="18"/><text x="293" y="99" text-anchor="middle">{y,z}</text></g><g id="edge3" class="edge"><title>xyz-&gt;yz</title><path style="fill:none;stroke:#000" d="M202,40C224,54 254,71 273,82"/><polygon style="fill:none;stroke:#000" points="200 43 193 35 203 37 200 43"/></g><g id="node3" class="node"><title>xz</title><ellipse style="fill:none;stroke:#000" cx="171" cy="94" rx="27" ry="18"/><text x="171" y="99" text-anchor="middle">{x,z}</text></g><g id="edge4" class="edge"><title>xyz-&gt;xz</title><path style="fill:none;stroke:#000" d="M171,50C171,59 171,68 171,76"/><polygon style="fill:none;stroke:#000" points="168 50 171 40 175 50 168 50"/></g><g id="node4" class="node"><title>xy</title><ellipse style="fill:none;stroke:#000" cx="49" cy="94" rx="27" ry="18"/><text x="49" y="99" text-anchor="middle">{x,y}</text></g><g id="edge5" class="edge"><title>xyz-&gt;xy</title><path style="fill:none;stroke:#000" d="M140,40C118,54 88,71 69,82"/><polygon style="fill:none;stroke:#000" points="139 37 149 35 142 43 139 37"/></g><g id="node6" class="node"><title>y</title><ellipse style="fill:none;stroke:#000" cx="171" cy="166" rx="27" ry="18"/><text x="171" y="171" text-anchor="middle">{y}</text></g><g id="edge8" class="edge"><title>yz-&gt;y</title><path style="fill:none;stroke:#000" d="M264,111C242,125 211,143 192,154"/><polygon style="fill:none;stroke:#000" points="263 108 273 106 266 114 263 108"/></g><g id="node7" class="node"><title>z</title><ellipse style="fill:none;stroke:#000" cx="293" cy="166" rx="27" ry="18"/><text x="293" y="171" text-anchor="middle">{z}</text></g><g id="edge9" class="edge"><title>yz-&gt;z</title><path style="fill:none;stroke:#000" d="M293,122C293,131 293,140 293,148"/><polygon style="fill:none;stroke:#000" points="290 122 293 112 297 122 290 122"/></g><g id="node5" class="node"><title>x</title><ellipse style="fill:none;stroke:#000" cx="49" cy="166" rx="27" ry="18"/><text x="49" y="171" text-anchor="middle">{x}</text></g><g id="edge12" class="edge"><title>xz-&gt;x</title><path style="fill:none;stroke:#000" d="M142,111C120,125 89,143 70,154"/><polygon style="fill:none;stroke:#000" points="141 108 151 106 144 114 141 108"/></g><g id="edge13" class="edge"><title>xz-&gt;z</title><path style="fill:none;stroke:#000" d="M200,111C222,125 253,143 272,154"/><polygon style="fill:none;stroke:#000" points="198 114 191 106 201 108 198 114"/></g><g id="edge16" class="edge"><title>xy-&gt;x</title><path style="fill:none;stroke:#000" d="M49,122C49,131 49,140 49,148"/><polygon style="fill:none;stroke:#000" points="46 122 49 112 53 122 46 122"/></g><g id="edge17" class="edge"><title>xy-&gt;y</title><path style="fill:none;stroke:#000" d="M78,111C100,125 131,143 150,154"/><polygon style="fill:none;stroke:#000" points="76 114 69 106 79 108 76 114"/></g><g id="node8" class="node"><title>phi</title><ellipse style="fill:none;stroke:#000" cx="171" cy="238" rx="27" ry="18"/><text x="171" y="243" text-anchor="middle">Ø</text></g><g id="edge19" class="edge"><title>x-&gt;phi</title><path style="fill:none;stroke:#000" d="M78,183C100,197 131,215 150,226"/><polygon style="fill:none;stroke:#000" points="76 186 69 178 79 180 76 186"/></g><g id="edge21" class="edge"><title>y-&gt;phi</title><path style="fill:none;stroke:#000" d="M171,194C171,203 171,212 171,220"/><polygon style="fill:none;stroke:#000" points="168 194 171 184 175 194 168 194"/></g><g id="edge23" class="edge"><title>z-&gt;phi</title><path style="fill:none;stroke:#000" d="M264,183C242,197 211,215 192,226"/><polygon style="fill:none;stroke:#000" points="263 180 273 178 266 186 263 180"/></g></g></svg>